# xmcd
#
# Track frame offsets: 
#        150
#        21321
#        39809
#        64539
#        89817
#        108027
#        128050
#        145783
#        162133
#        179636
#        198305
#        218088
#
# Disc length: 3128 seconds
#
# Revision: 1
# Processed by: cddbd v1.5.2PL0 Copyright (c) Steve Scherf et al.
# Submitted via: ExactAudioCopyFreeDBPlugin 1.0
#
DISCID=a00c360c
DTITLE=Various Original Artists - ASOP (A Song Of Praise Music Festiva
DTITLE=l) Grand Finals 2012
DYEAR=2012
DGENRE=Christian Pop
TTITLE0=Gretchen Espina - I Will Still Praise You
TTITLE1=Jeffrey Hidalgo - The Sweetest Moment
TTITLE2=Faith Cuneta - Sa Iyo Aking Ama
TTITLE3=Jayson Fernandez - Purihin Ka Ng Aking Luha
TTITLE4=Nikki Valdez - Pupurihin Ka Hanggang Sa Kailanman
TTITLE5=Renz Verano - Pag-ibig Ay Dios
TTITLE6=Gian Magdangal - Reasons To Believe
TTITLE7=Marielle Corpuz - Sa 'Yo
TTITLE8=Catherine Loria - Puso Kong Nabuksan
TTITLE9=Kyla - Be My Everything
TTITLE10=Gail Blanco - Purihin Mo Ang Dios, Oh Pilipinas
TTITLE11=Aia De Leon - Ikaw Ang Ngayon, Bukas At Kailanman
EXTD=
EXTT0=
EXTT1=
EXTT2=
EXTT3=
EXTT4=
EXTT5=
EXTT6=
EXTT7=
EXTT8=
EXTT9=
EXTT10=
EXTT11=
PLAYORDER=
